<?xml version="1.0" encoding="utf-8"?>
<!-- Generator: Adobe Illustrator 24.3.0, SVG Export Plug-In . SVG Version: 6.00 Build 0)  -->
<svg version="1.1" id="Layer_1" xmlns="http://www.w3.org/2000/svg" xmlns:xlink="http://www.w3.org/1999/xlink" x="0px" y="0px"
	 viewBox="0 0 24 24" style="enable-background:new 0 0 24 24;" xml:space="preserve">
<g>
	<g>
		<path d="M14.2,11.8l6.2-6.2C21,5,21,4.1,20.5,3.5C19.9,3,19,3,18.4,3.5l-6.2,6.2L6,3.5C5.4,3,4.5,3,3.9,3.5S3.4,5,3.9,5.6l6.2,6.2
			L3.9,18c-0.6,0.6-0.6,1.5,0,2c0,0,0,0,0,0c0.6,0.6,1.5,0.6,2,0c0,0,0,0,0,0l6.2-6.2l6.2,6.2c0.6,0.6,1.5,0.6,2,0c0,0,0,0,0,0
			c0.6-0.6,0.6-1.5,0-2c0,0,0,0,0,0L14.2,11.8z"/>
	</g>
</g>
</svg>
