<?xml version="1.0" encoding="utf-8"?>
<!-- Generator: Adobe Illustrator 24.3.0, SVG Export Plug-In . SVG Version: 6.00 Build 0)  -->
<svg version="1.1" id="Layer_1" xmlns="http://www.w3.org/2000/svg" xmlns:xlink="http://www.w3.org/1999/xlink" x="0px" y="0px"
	 viewBox="0 0 24 24" style="enable-background:new 0 0 24 24;" xml:space="preserve">
<style type="text/css">
	.st0{fill:none;stroke:#4830E6;stroke-width:2;stroke-linejoin:round;stroke-miterlimit:10;}
</style>
<path class="st0" d="M14.2,13.6c-0.4,0.4-0.7,0.8-1,1.4c-1.5-1.3-2.9-2.6-4.2-4.2c0.5-0.2,1-0.6,1.3-1c1.7-1.7,1.1-4-0.6-5.7
	C8,2.4,5.8,1.7,4.1,3.5s-2,4.9-0.6,7c2.5,3.8,6.3,7.7,10.1,10.2c2,1.4,5.3,1.1,7-0.6c1.7-1.7,1.1-4-0.6-5.7
	C18.2,12.6,16,11.9,14.2,13.6z"/>
</svg>
