<?xml version="1.0" encoding="utf-8"?>
<!-- Generator: Adobe Illustrator 24.3.0, SVG Export Plug-In . SVG Version: 6.00 Build 0)  -->
<svg version="1.1" id="Layer_1" xmlns="http://www.w3.org/2000/svg" xmlns:xlink="http://www.w3.org/1999/xlink" x="0px" y="0px"
	 viewBox="0 0 24 24" style="enable-background:new 0 0 24 24;" xml:space="preserve">
<g>
	<g>
		<path d="M21.2,19.7l-3.6-3.6c1.2-1.5,1.8-3.3,1.8-5.2c0-4.7-3.8-8.6-8.6-8.6s-8.6,3.8-8.6,8.6s3.8,8.6,8.6,8.6
			c1.9,0,3.8-0.6,5.2-1.8l3.6,3.6c0.4,0.4,1.1,0.4,1.5,0c0,0,0,0,0,0C21.6,20.8,21.6,20.1,21.2,19.7C21.2,19.7,21.2,19.7,21.2,19.7z
			 M4.4,10.8c0-3.5,2.9-6.4,6.4-6.4s6.4,2.9,6.4,6.4s-2.9,6.4-6.4,6.4S4.4,14.4,4.4,10.8z"/>
	</g>
</g>
</svg>
